# xmcd
#
# Track frame offsets:
#	150
#	15012
#	33588
#	50740
#	67673
#	86074
#	101324
#	116162
#	134751
#	151903
#	168837
#	187238
#
# Disc length: 2698 seconds
#
# Revision: 1
# Processed by: cddbd v1.5.2PL0 Copyright (c) Steve Scherf et al.
# Submitted via: audiograbber 1.83.01
#
DISCID=980a880c
DTITLE=Lonestar - Chartbuster 20237
DYEAR=1900
DGENRE=Country
TTITLE0=No News (Voc)
TTITLE1=Amazed (Voc)
TTITLE2=Come Cryin' To Me (Voc)
TTITLE3=Smile (Voc)
TTITLE4=You Walked In (Voc)
TTITLE5=Tequila Talkin' (Voc)
TTITLE6=No News
TTITLE7=Amazed
TTITLE8=Come Cryin' To Me
TTITLE9=Smile
TTITLE10=You Walked In
TTITLE11=Tequila Talkin'
EXTD=
EXTT0=
EXTT1=
EXTT2=
EXTT3=
EXTT4=
EXTT5=
EXTT6=
EXTT7=
EXTT8=
EXTT9=
EXTT10=
EXTT11=
PLAYORDER=
